<svg xmlns="http://www.w3.org/2000/svg" width="28" height="28" fill="none"><path fill="currentColor" fill-rule="evenodd" d="M1 6a3 3 0 1 1 5.898.78l3.79 2.756A5.482 5.482 0 0 1 14.5 8c1.673 0 3.172.747 4.18 1.926l2.363-1.418a3 3 0 1 1 .977 1.746l-2.337 1.402a5.498 5.498 0 0 1-2.472 6.63L17.946 20H18a3 3 0 1 1-1.93.703l-.755-1.763a5.494 5.494 0 0 1-5.339-2.31l-1.999 1a3 3 0 1 1-.895-1.789l2.074-1.037a5.513 5.513 0 0 1 .365-3.643L5.763 8.428A3 3 0 0 1 1 6Zm3-1a1 1 0 1 0 0 2 1 1 0 0 0 0-2Zm20 2a1 1 0 1 0 0 2 1 1 0 0 0 0-2Zm-7 16a1 1 0 1 1 2 0 1 1 0 0 1-2 0ZM5 17a1 1 0 1 0 0 2 1 1 0 0 0 0-2Zm6-3.5a3.5 3.5 0 1 1 7 0 3.5 3.5 0 0 1-7 0Z" clip-rule="evenodd"/><path fill="currentColor" d="M14.5 12a1.5 1.5 0 1 0 0 3 1.5 1.5 0 0 0 0-3Z"/></svg>
