<svg xmlns="http://www.w3.org/2000/svg" width="28" height="28" fill="none"><path fill="currentColor" fill-rule="evenodd" d="m9.811 18.185 4.253 4.258c.51.51 1.247.732 1.925.486 1.156-.418 2.868-1.26 3.367-2.692a4.077 4.077 0 0 0 .222-1.08 3.473 3.473 0 0 0-.025-.696c-.157-1.16-.2-2.57.628-3.398l2.509-2.512c1.012-1.013 1.82-2.217 2.263-3.578.72-2.212 1.583-5.556.605-6.534-.978-.978-4.317-.118-6.529.602-1.366.444-2.572 1.255-3.587 2.271L12.94 7.818c-.829.83-2.24.787-3.4.63a3.589 3.589 0 0 0-.83-.016 4.044 4.044 0 0 0-.947.21c-1.434.5-2.275 2.216-2.692 3.372-.244.678-.022 1.414.488 1.923l4.252 4.248ZM23.067 4.2c-1.059.158-2.314.51-3.382.857-.99.322-1.918.928-2.742 1.753L14.44 9.317c-.869.87-1.947 1.185-2.819 1.291-.869.106-1.722.028-2.367-.059a1.674 1.674 0 0 0-.793.097c-.13.044-.375.202-.683.646-.071.102-.138.21-.203.321-.166.29-.31.605-.43.911l4.165 4.16 4.167 4.172a6.091 6.091 0 0 0 1.23-.634 2.69 2.69 0 0 0 .42-.35.997.997 0 0 0 .226-.334c.06-.171.09-.322.103-.455.013-.13.008-.243-.005-.338-.088-.644-.165-1.496-.059-2.364.106-.87.42-1.948 1.288-2.817l2.51-2.512c.82-.823 1.424-1.748 1.746-2.736.347-1.067.7-2.325.858-3.385.048-.321.072-.59.079-.808a7.123 7.123 0 0 0-.806.078Zm-4.257 7.99a2.121 2.121 0 1 1-3-3 2.121 2.121 0 0 1 3 3ZM7.561 18.94a1.06 1.06 0 1 1 1.5 1.5l-5.25 5.25a1.06 1.06 0 1 1-1.5-1.5l5.25-5.25Zm-2.25-2.25a1.06 1.06 0 1 1 1.5 1.5l-3 3a1.061 1.061 0 0 1-1.5-1.5l3-3Zm4.5 4.5a1.06 1.06 0 0 1 1.5 0 1.058 1.058 0 0 1 0 1.5l-3 3a1.061 1.061 0 0 1-1.5-1.5l3-3Z" clip-rule="evenodd"/></svg>
