<svg xmlns="http://www.w3.org/2000/svg" width="28" height="28" fill="none"><path fill="currentColor" fill-rule="evenodd" d="M1.865 5.834c-.708 0-1.283.575-1.283 1.283v12.6c0 .71.575 1.284 1.283 1.284h2.128c.579 0 1.086-.388 1.238-.946l.538-1.972 7.46 4.973a1.4 1.4 0 0 0 1.497.036l7.621-4.573.42 1.536c.152.558.659.946 1.238.946h2.127c.709 0 1.283-.575 1.283-1.284v-12.6c0-.708-.574-1.283-1.283-1.283h-5.564c-.777 0-1.358.678-1.276 1.42l-4.404-.8a1.4 1.4 0 0 0-1.065.238l-1.629 1.164-3.584-.189.057-.212A1.283 1.283 0 0 0 7.43 5.834H1.865Zm6.116 4.137-1.565 5.74 7.616 5.076 4.513-2.708-3.044-4.185-1.302.977a1.4 1.4 0 0 1-1.115.253l-2.627-.525a1.4 1.4 0 0 1-1.125-1.373v-2.605c0-.2.043-.395.122-.573l-1.473-.077Zm12.572 6.903 1.157-.694-1.755-6.433-5.096-.927-3.194 2.281v1.36l1.468.293 1.726-1.294a1.4 1.4 0 0 1 1.972.296l3.722 5.118ZM2.915 18.667v-10.5h3.14l-2.864 10.5h-.276Zm22.167 0v-10.5h-3.14l2.864 10.5h.276Z" clip-rule="evenodd"/></svg>
