<svg width="1999" height="616" viewBox="0 0 1999 616" fill="none" xmlns="http://www.w3.org/2000/svg">
<mask id="mask0_20150_137405" style="mask-type:alpha" maskUnits="userSpaceOnUse" x="-104" y="0" width="2207" height="617">
<path d="M-104 0H2103V617H-104V0Z" fill="url(#paint0_linear_20150_137405)"/>
</mask>
<g mask="url(#mask0_20150_137405)">
<path d="M-104 0H2103V629H-104V0Z" fill="url(#paint1_linear_20150_137405)"/>
<g filter="url(#filter0_f_20150_137405)">
<path d="M1070.52 906.65C1576.91 712.999 1411.31 1072.5 1720.08 1107.06C2028.86 1141.61 2265.35 768.44 1579.64 486.644C893.928 204.848 205.122 1237.59 1070.52 906.65Z" fill="url(#paint2_linear_20150_137405)" fill-opacity="0.4"/>
</g>
<g filter="url(#filter1_f_20150_137405)">
<path d="M35.0119 331.8C-320.068 74.5374 -860.603 308.446 -880.219 52.4949C-899.835 -203.456 -298.064 200.126 420.698 8.96218C1139.46 -182.202 641.819 771.443 35.0119 331.8Z" fill="url(#paint3_linear_20150_137405)" fill-opacity="0.7"/>
</g>
<g filter="url(#filter2_f_20150_137405)">
<path d="M1075.02 111.47C1231.87 291.055 1404.57 -49.1075 1728.84 263.528C2053.1 576.163 2343 -49.1074 1763.2 -254.255C1183.4 -459.402 888.55 -102.036 1075.02 111.47Z" fill="url(#paint4_linear_20150_137405)" fill-opacity="0.6"/>
</g>
<path opacity="0.1" d="M72.3672 56.7456L72.3672 -87.34L72.3672 -227.187L72.3672 -424.253C72.3672 -435.098 78.3698 -445.119 88.1138 -450.542L520.278 -691.04C530.022 -696.463 542.027 -696.463 551.771 -691.04L983.935 -450.542C993.679 -445.119 999.682 -435.098 999.682 -424.253V-277.735V-136.961V56.7456C999.682 67.5908 993.679 77.612 983.935 83.0346L551.771 323.534C542.027 328.956 530.022 328.956 520.278 323.534L88.1138 83.0346C78.3698 77.612 72.3672 67.5908 72.3672 56.7456Z" fill="url(#paint5_linear_20150_137405)"/>
<path opacity="0.1" d="M1234 795.977L1234 710.318L1234 627.179L1234 510.023C1234 503.576 1237.57 497.618 1243.36 494.394L1500.14 351.418C1505.93 348.194 1513.07 348.194 1518.86 351.418L1775.64 494.394C1781.43 497.618 1785 503.576 1785 510.023V597.128V680.818V795.977C1785 802.424 1781.43 808.382 1775.64 811.605L1518.86 954.582C1513.07 957.806 1505.93 957.806 1500.14 954.582L1243.36 811.605C1237.57 808.382 1234 802.424 1234 795.977Z" fill="url(#paint6_linear_20150_137405)"/>
</g>
<defs>
<filter id="filter0_f_20150_137405" x="460.301" y="232.132" width="1768.55" height="1082.37" filterUnits="userSpaceOnUse" color-interpolation-filters="sRGB">
<feFlood flood-opacity="0" result="BackgroundImageFix"/>
<feBlend mode="normal" in="SourceGraphic" in2="BackgroundImageFix" result="shape"/>
<feGaussianBlur stdDeviation="102.604" result="effect1_foregroundBlur_20150_137405"/>
</filter>
<filter id="filter1_f_20150_137405" x="-1153.56" y="-308.32" width="2202.28" height="1030.1" filterUnits="userSpaceOnUse" color-interpolation-filters="sRGB">
<feFlood flood-opacity="0" result="BackgroundImageFix"/>
<feBlend mode="normal" in="SourceGraphic" in2="BackgroundImageFix" result="shape"/>
<feGaussianBlur stdDeviation="136.435" result="effect1_foregroundBlur_20150_137405"/>
</filter>
<filter id="filter2_f_20150_137405" x="869.575" y="-465.364" width="1375.58" height="964.61" filterUnits="userSpaceOnUse" color-interpolation-filters="sRGB">
<feFlood flood-opacity="0" result="BackgroundImageFix"/>
<feBlend mode="normal" in="SourceGraphic" in2="BackgroundImageFix" result="shape"/>
<feGaussianBlur stdDeviation="74.8729" result="effect1_foregroundBlur_20150_137405"/>
</filter>
<linearGradient id="paint0_linear_20150_137405" x1="-104" y1="631.05" x2="2047.07" y2="83.5108" gradientUnits="userSpaceOnUse">
<stop stop-color="#1B45B4"/>
<stop offset="1" stop-color="#1C2792"/>
</linearGradient>
<linearGradient id="paint1_linear_20150_137405" x1="-1101.03" y1="1513.75" x2="2178.06" y2="785.526" gradientUnits="userSpaceOnUse">
<stop stop-color="#00B4D5"/>
<stop offset="1" stop-color="#0081A7"/>
</linearGradient>
<linearGradient id="paint2_linear_20150_137405" x1="484.088" y1="1014.42" x2="1658.68" y2="326.661" gradientUnits="userSpaceOnUse">
<stop stop-color="white"/>
<stop offset="1" stop-color="#99E1EE"/>
</linearGradient>
<linearGradient id="paint3_linear_20150_137405" x1="447.583" y1="592.763" x2="-325.978" y2="-190.435" gradientUnits="userSpaceOnUse">
<stop stop-color="#00B4D5"/>
<stop offset="1" stop-color="#CCF2F4"/>
</linearGradient>
<linearGradient id="paint4_linear_20150_137405" x1="766.896" y1="307.075" x2="1849.9" y2="-326.07" gradientUnits="userSpaceOnUse">
<stop stop-color="#0081A7"/>
<stop offset="1" stop-color="#66D2E6"/>
</linearGradient>
<linearGradient id="paint5_linear_20150_137405" x1="538.835" y1="583.278" x2="1341.5" y2="73.7094" gradientUnits="userSpaceOnUse">
<stop offset="0.500188" stop-color="#0081A7"/>
<stop offset="1" stop-color="#7AEAFF"/>
</linearGradient>
<linearGradient id="paint6_linear_20150_137405" x1="1833.23" y1="957" x2="2150.75" y2="444.488" gradientUnits="userSpaceOnUse">
<stop stop-color="#0081A7"/>
<stop offset="1" stop-color="#7CE1FF"/>
</linearGradient>
</defs>
</svg>
