<svg xmlns="http://www.w3.org/2000/svg" width="28" height="28" fill="currentColor"><path fill="currentColor" fill-rule="evenodd" d="M11 2a9 9 0 0 0-8.942 10.027C2.359 14.68 5.118 16 7.788 16H13v2H5a2 2 0 0 0-2 2v4a2 2 0 0 0 2 2h18a2 2 0 0 0 2-2v-4a2 2 0 0 0-2-2h-8v-2h5.896l.428-.01c2.077-.109 4.195-1.012 4.588-2.982l.035-.207a6 6 0 0 0-7.354-6.635l-.154-.232A8.99 8.99 0 0 0 11 2Zm12.197 11.494c-.57.314-1.404.506-2.3.506H7.787c-1.035 0-2.009-.26-2.694-.688-.65-.405-.98-.905-1.048-1.51a7 7 0 0 1 12.862-4.56l.767 1.201 1.387-.333a4 4 0 0 1 4.904 4.426c-.047.352-.24.667-.768.958ZM5 20h18v4H5v-4Zm13 1a1 1 0 1 0 0 2h3a1 1 0 1 0 0-2h-3Z" clip-rule="evenodd"/></svg>
