<svg xmlns="http://www.w3.org/2000/svg" width="28" height="28" fill="currentColor"><g fill="currentColor" clip-path="url(#a)"><path d="M16.846 13.174V8.702L13 6.246v4.472l3.846 2.456ZM22.01 4.46l-4.153-2.308-3.941 2.308 3.943 2.518 4.15-2.518ZM23 6.2l-4.154 2.52v4.505L23 10.704V6.197ZM11 4.42a1 1 0 0 1 .495-.863L16.849.424A2 2 0 0 1 18.83.403l5.655 3.144a1 1 0 0 1 .514.874v6.282a2 2 0 0 1-.963 1.71l-5.672 3.441a1 1 0 0 1-1.057-.012l-5.384-3.438A2 2 0 0 1 11 10.718V4.421ZM15 17v.514-.515h.021l.035.001.101.006a3.46 3.46 0 0 1 1.29.349c.369.184.768.476 1.073.933.266.4.429.88.47 1.437a62.99 62.99 0 0 0 1.569-.805c.535-.282 1.074-.567 1.591-.822 1.003-.494 2.07-.951 3.037-1.031.504-.042 1.042.013 1.543.268.513.26.898.683 1.165 1.217.491.984.097 2.02-.352 2.762-.478.79-1.213 1.584-1.992 2.298-1.56 1.43-3.511 2.736-4.604 3.282-.694.347-1.626.566-2.55.716-.945.153-1.975.245-2.917.302a51.323 51.323 0 0 1-3.21.09L11.06 28H2.25a1 1 0 0 1-1-1v-5a1 1 0 0 1 1-1h3.132L6 19.762a5 5 0 0 1 4.472-2.764H15Zm-4.528 2a3 3 0 0 0-2.683 1.657L7 22.236v3.763h4.032l.05.001.196.002a49.407 49.407 0 0 0 3.081-.086 28.165 28.165 0 0 0 2.72-.281c.877-.142 1.56-.324 1.974-.53.907-.454 2.707-1.648 4.146-2.968.721-.661 1.298-1.305 1.633-1.858.363-.602.282-.816.273-.832-.108-.217-.21-.294-.28-.33-.081-.04-.222-.078-.473-.057-.548.045-1.31.335-2.318.832-.488.24-1 .511-1.544.798-.539.284-1.106.58-1.681.862-1.144.559-2.382 1.083-3.614 1.33-.006 0-.013 0-.02.002-.533.128-1.088.2-1.606.237-.886.086-1.648.087-2.252.052a11.164 11.164 0 0 1-1.116-.117 7.055 7.055 0 0 1-.4-.076l-.028-.007-.01-.002a.04.04 0 0 0-.003-.001h-.002a1.001 1.001 0 0 1 .384-1.961l.002.001.011.001.051.007.206.024c.18.02.44.047.753.07.622.044 1.433.071 2.233.016a14.4 14.4 0 0 0 1.373-.202c.262-.066.495-.146.688-.243.439-.22.541-.432.541-.684 0-.325-.078-.502-.145-.601a.759.759 0 0 0-.302-.254 1.457 1.457 0 0 0-.538-.144h-4.543ZM3.25 26H5v-3H3.25v3Z"/></g><defs><clipPath id="a"><path fill="#fff" d="M0 0h28v28H0z"/></clipPath></defs></svg>
