<svg xmlns="http://www.w3.org/2000/svg" width="28" height="28" fill="none"><mask id="a" fill="#fff"><rect width="7" height="7" x="3" y="18" rx="1"/></mask><rect width="7" height="7" x="3" y="18" stroke="currentColor" stroke-linejoin="round" stroke-width="4" mask="url(#a)" rx="1"/><mask id="b" fill="#fff"><rect width="7" height="7" x="8" y="18" rx="1"/></mask><rect width="7" height="7" x="8" y="18" stroke="currentColor" stroke-linejoin="round" stroke-width="4" mask="url(#b)" rx="1"/><mask id="c" fill="#fff"><rect width="7" height="7" x="8" y="13" rx="1"/></mask><rect width="7" height="7" x="8" y="13" stroke="currentColor" stroke-linejoin="round" stroke-width="4" mask="url(#c)" rx="1"/><mask id="d" fill="#fff"><rect width="7" height="7" x="8" y="8" rx="1"/></mask><rect width="7" height="7" x="8" y="8" stroke="currentColor" stroke-linejoin="round" stroke-width="4" mask="url(#d)" rx="1"/><mask id="e" fill="#fff"><rect width="7" height="7" x="18" y="3" rx="1"/></mask><rect width="7" height="7" x="18" y="3" stroke="currentColor" stroke-linejoin="round" stroke-width="4" mask="url(#e)" rx="1"/><mask id="f" fill="#fff"><rect width="7" height="7" x="13" y="18" rx="1"/></mask><rect width="7" height="7" x="13" y="18" stroke="currentColor" stroke-linejoin="round" stroke-width="4" mask="url(#f)" rx="1"/><mask id="g" fill="#fff"><rect width="7" height="7" x="18" y="18" rx="1"/></mask><rect width="7" height="7" x="18" y="18" stroke="currentColor" stroke-linejoin="round" stroke-width="4" mask="url(#g)" rx="1"/><mask id="h" fill="#fff"><rect width="7" height="7" x="13" y="13" rx="1"/></mask><rect width="7" height="7" x="13" y="13" stroke="currentColor" stroke-linejoin="round" stroke-width="4" mask="url(#h)" rx="1"/></svg>
