<svg xmlns="http://www.w3.org/2000/svg" width="28" height="28" fill="none"><path fill="currentColor" fill-rule="evenodd" d="M16 6a2 2 0 1 1-4 0 2 2 0 0 1 4 0Zm2 0a4 4 0 1 1-8 0 4 4 0 0 1 8 0ZM7 20a4 4 0 0 1 4 4H3a4 4 0 0 1 4-4Zm-6 4a6 6 0 0 1 12 0 2 2 0 0 1-2 2H3a2 2 0 0 1-2-2Zm24 0a4 4 0 0 0-8 0h8Zm-4-6a6 6 0 0 0-6 6 2 2 0 0 0 2 2h8a2 2 0 0 0 2-2 6 6 0 0 0-6-6ZM9 14a2 2 0 1 1-4 0 2 2 0 0 1 4 0Zm2 0a4 4 0 1 1-8 0 4 4 0 0 1 8 0Zm-.915-2.547c.452.548.762 1.217.871 1.952A3.99 3.99 0 0 1 14 12c1.219 0 2.31.545 3.044 1.405a4 4 0 1 0 .871-1.951A5.977 5.977 0 0 0 14 10a5.975 5.975 0 0 0-3.915 1.453ZM21 16a2 2 0 1 0 0-4 2 2 0 0 0 0 4Z" clip-rule="evenodd"/></svg>
