<svg xmlns="http://www.w3.org/2000/svg" width="26" height="25" fill="none"><path fill="currentColor" fill-rule="evenodd" d="M12.833 0c.443 0 .848.25 1.045.647L17.5 7.794l7.168.966a1.167 1.167 0 0 1 .643 1.993l-5.973 4.649 2.3 7.733a1.167 1.167 0 0 1-1.69 1.232l-7.115-4.273-7.115 4.273a1.167 1.167 0 0 1-1.69-1.232l2.3-7.733-5.972-4.65A1.167 1.167 0 0 1 .999 8.76l7.168-.966L11.789.647A1.167 1.167 0 0 1 12.833 0Zm0 3.788L9.984 9.38c-.17.343-.498.58-.877.636l-5.421.711 4.708 3.427c.278.268.405.657.339 1.037l-2.004 6.016 5.564-3.463a1.166 1.166 0 0 1 1.08 0l5.565 3.463-2.004-6.016c-.066-.38.06-.769.338-1.037l4.71-3.427-5.422-.711a1.167 1.167 0 0 1-.877-.636l-2.85-5.592Z" clip-rule="evenodd"/></svg>
